<?xml version="1.0" encoding="UTF-8" standalone="no"?>
<!-- Created with Inkscape (http://www.inkscape.org/) -->

<svg
   width="120"
   height="120"
   viewBox="0 0 31.749999 31.75"
   version="1.1"
   id="svg18060"
   inkscape:version="1.2.2 (732a01da63, 2022-12-09)"
   sodipodi:docname="sprom.svg"
   xmlns:inkscape="http://www.inkscape.org/namespaces/inkscape"
   xmlns:sodipodi="http://sodipodi.sourceforge.net/DTD/sodipodi-0.dtd"
   xmlns:xlink="http://www.w3.org/1999/xlink"
   xmlns="http://www.w3.org/2000/svg"
   xmlns:svg="http://www.w3.org/2000/svg">
  <sodipodi:namedview
     id="namedview18062"
     pagecolor="#ffffff"
     bordercolor="#666666"
     borderopacity="1.0"
     inkscape:showpageshadow="2"
     inkscape:pageopacity="0.0"
     inkscape:pagecheckerboard="0"
     inkscape:deskcolor="#d1d1d1"
     inkscape:document-units="px"
     showgrid="false"
     inkscape:zoom="2.6119809"
     inkscape:cx="10.911259"
     inkscape:cy="88.438625"
     inkscape:window-width="1920"
     inkscape:window-height="1017"
     inkscape:window-x="3832"
     inkscape:window-y="-8"
     inkscape:window-maximized="1"
     inkscape:current-layer="layer1" />
  <defs
     id="defs18057">
    <linearGradient
       inkscape:collect="always"
       id="linearGradient21820">
      <stop
         style="stop-color:#e3cb86;stop-opacity:1;"
         offset="0"
         id="stop21816" />
      <stop
         style="stop-color:#c9b677;stop-opacity:1;"
         offset="1"
         id="stop21818" />
    </linearGradient>
    <linearGradient
       inkscape:collect="always"
       id="linearGradient21485">
      <stop
         style="stop-color:#572498;stop-opacity:1;"
         offset="0"
         id="stop21481" />
      <stop
         style="stop-color:#5e3eb2;stop-opacity:1;"
         offset="1"
         id="stop21483" />
    </linearGradient>
    <linearGradient
       inkscape:collect="always"
       id="linearGradient21391">
      <stop
         style="stop-color:#efd78d;stop-opacity:1;"
         offset="0"
         id="stop21387" />
      <stop
         style="stop-color:#c9b677;stop-opacity:1;"
         offset="1"
         id="stop21389" />
    </linearGradient>
    <linearGradient
       inkscape:collect="always"
       id="linearGradient21383">
      <stop
         style="stop-color:#efe1b3;stop-opacity:1;"
         offset="0"
         id="stop21379" />
      <stop
         style="stop-color:#dfd2a8;stop-opacity:1;"
         offset="1"
         id="stop21381" />
    </linearGradient>
    <linearGradient
       inkscape:collect="always"
       id="linearGradient21099">
      <stop
         style="stop-color:#c37730;stop-opacity:1;"
         offset="0"
         id="stop21095" />
      <stop
         style="stop-color:#d68e4b;stop-opacity:1;"
         offset="1"
         id="stop21097" />
    </linearGradient>
    <linearGradient
       inkscape:collect="always"
       id="linearGradient21091">
      <stop
         style="stop-color:#bebebe;stop-opacity:1;"
         offset="0"
         id="stop21087" />
      <stop
         style="stop-color:#dedede;stop-opacity:1;"
         offset="1"
         id="stop21089" />
    </linearGradient>
    <linearGradient
       inkscape:collect="always"
       xlink:href="#linearGradient21091"
       id="linearGradient21093"
       x1="10.761876"
       y1="13.181758"
       x2="9.7438202"
       y2="12.096495"
       gradientUnits="userSpaceOnUse"
       gradientTransform="matrix(1.262074,-1.2140583,1.2140583,1.262074,-4.6037413,11.522937)" />
    <linearGradient
       inkscape:collect="always"
       xlink:href="#linearGradient21485"
       id="linearGradient21101"
       x1="10.930038"
       y1="9.9694853"
       x2="7.6812282"
       y2="5.523385"
       gradientUnits="userSpaceOnUse"
       gradientTransform="matrix(1.262074,-1.2140583,1.2140583,1.262074,-4.6037413,11.522937)" />
    <linearGradient
       inkscape:collect="always"
       xlink:href="#linearGradient21383"
       id="linearGradient21385"
       x1="14.595049"
       y1="9.8528214"
       x2="14.595049"
       y2="23.441359"
       gradientUnits="userSpaceOnUse"
       gradientTransform="matrix(1.5345279,-0.27554687,0.269099,1.4986196,-12.533297,-4.4004896)" />
    <linearGradient
       inkscape:collect="always"
       xlink:href="#linearGradient21391"
       id="linearGradient21393"
       x1="15.620877"
       y1="9.142972"
       x2="15.620877"
       y2="24.387825"
       gradientUnits="userSpaceOnUse"
       gradientTransform="matrix(1.4747715,-0.26481673,0.26481673,1.4747715,-59.792372,-1.5365241)" />
    <linearGradient
       inkscape:collect="always"
       xlink:href="#linearGradient21099"
       id="linearGradient21479"
       gradientUnits="userSpaceOnUse"
       gradientTransform="matrix(1.262074,-1.2140583,1.2140583,1.262074,10.778016,-12.754008)"
       x1="10.930038"
       y1="9.9694853"
       x2="7.6812282"
       y2="5.523385" />
    <linearGradient
       inkscape:collect="always"
       xlink:href="#linearGradient21391"
       id="linearGradient21754"
       gradientUnits="userSpaceOnUse"
       x1="15.620877"
       y1="9.142972"
       x2="15.620877"
       y2="24.387825" />
    <linearGradient
       inkscape:collect="always"
       xlink:href="#linearGradient21383"
       id="linearGradient21756"
       gradientUnits="userSpaceOnUse"
       gradientTransform="matrix(1.0405191,0,0,1.0161707,-0.64324014,-0.26044904)"
       x1="14.595049"
       y1="9.8528214"
       x2="14.595049"
       y2="23.441359" />
    <linearGradient
       inkscape:collect="always"
       xlink:href="#linearGradient21485"
       id="linearGradient21758"
       gradientUnits="userSpaceOnUse"
       gradientTransform="matrix(1.262074,-1.2140583,1.2140583,1.262074,-3.2608986,11.957348)"
       x1="10.930038"
       y1="9.9694853"
       x2="7.6812282"
       y2="5.523385" />
    <linearGradient
       inkscape:collect="always"
       xlink:href="#linearGradient21091"
       id="linearGradient21760"
       gradientUnits="userSpaceOnUse"
       gradientTransform="matrix(1.262074,-1.2140583,1.2140583,1.262074,-3.2608986,11.957348)"
       x1="10.761876"
       y1="13.181758"
       x2="9.7438202"
       y2="12.096495" />
    <linearGradient
       inkscape:collect="always"
       xlink:href="#linearGradient21820"
       id="linearGradient21814"
       x1="12.460479"
       y1="6.8422599"
       x2="13.0607"
       y2="23.814655"
       gradientUnits="userSpaceOnUse"
       gradientTransform="matrix(1.4747715,-0.26481673,0.26481673,1.4747715,-11.515694,-4.1867275)" />
  </defs>
  <g
     inkscape:label="Layer 1"
     inkscape:groupmode="layer"
     id="layer1">
    <g
       id="g19232"
       transform="matrix(0.9275766,0,0,1.377193,-34.655624,-34.532193)">
      <ellipse
         style="font-variation-settings:'wght' 300;fill:#b7993e;fill-opacity:1;stroke-width:1.2028;stroke-linecap:square;stroke-linejoin:bevel;stroke-miterlimit:2;paint-order:stroke fill markers"
         id="ellipse19228"
         cx="10.306872"
         cy="11.699693"
         rx="5.5459585"
         ry="2.8869371" />
      <ellipse
         style="font-variation-settings:'wght' 300;fill:#b7993e;fill-opacity:1;stroke-width:1.2028;stroke-linecap:square;stroke-linejoin:bevel;stroke-miterlimit:2;paint-order:stroke fill markers"
         id="ellipse19230"
         cx="17.397594"
         cy="11.699693"
         rx="5.5459585"
         ry="2.8869371" />
    </g>
    <rect
       style="font-variation-settings:'wght' 300;fill:#b7993e;fill-opacity:1;stroke-width:1.2028;stroke-linecap:square;stroke-linejoin:bevel;stroke-miterlimit:2;paint-order:stroke fill markers"
       id="rect19234"
       width="14.890518"
       height="13.016541"
       x="-29.251875"
       y="-18.596725"
       ry="0.81036836" />
    <path
       id="path18596"
       style="font-variation-settings:'wght' 300;fill:url(#linearGradient21393);fill-opacity:1;stroke-width:2.03696;stroke-linecap:square;stroke-linejoin:bevel;stroke-miterlimit:2;paint-order:stroke fill markers"
       d="m -39.191679,6.4843141 a 5.9572791,7.7080089 79.820193 0 0 -6.534027,7.2252279 5.9572791,7.7080089 79.820193 0 0 2.076936,3.189939 l 2.56576,14.288787 c 0.118888,0.66209 0.747476,1.099298 1.409566,0.98041 L -20.104002,28.6547 c 0.662088,-0.118888 1.099297,-0.747476 0.980409,-1.409566 l -2.565213,-14.285738 a 5.9572791,7.7080089 79.820193 0 0 0.836823,-3.7162943 5.9572791,7.7080089 79.820193 0 0 -8.639569,-4.5005869 5.9572791,7.7080089 79.820193 0 0 -4.604188,2.2270436 5.9572791,7.7080089 79.820193 0 0 -5.095939,-0.4852443 z" />
    <g
       id="g21862"
       transform="translate(0.04003256,0.06779872)">
      <path
         id="path19242"
         style="font-variation-settings:'wght' 300;fill:url(#linearGradient21385);fill-opacity:1;stroke:url(#linearGradient21814);stroke-width:1.13665;stroke-linecap:square;stroke-linejoin:bevel;stroke-miterlimit:2;stroke-dasharray:none;stroke-opacity:1;paint-order:stroke fill markers"
         d="M 9.4591015,4.4172963 C 4.7175686,5.2686428 2.7282966,8.1976448 3.2798033,11.271304 c 0.2124046,1.177491 0.8057055,1.70657 1.8716327,2.497316 l 2.5307897,14.094036 c 0.1128466,0.628445 0.7078984,1.043725 1.3343623,0.931234 l 18.516465,-3.324901 c 0.626463,-0.112491 1.039859,-0.708852 0.927012,-1.337297 L 25.929795,10.040549 C 26.654631,8.9274212 27.026634,8.2238667 26.81514,7.0451908 26.262833,3.9716758 23.22336,1.9456605 18.637292,2.7692184 16.961483,3.0710605 15.459091,4.0326584 14.32012,5.0951756 12.881369,4.4947658 11.136577,4.1161989 9.4591015,4.4172963 Z"
         sodipodi:nodetypes="cccssssccccc" />
      <path
         style="fill:url(#linearGradient21101);fill-opacity:1;stroke:none;stroke-width:0.463343px;stroke-linecap:butt;stroke-linejoin:miter;stroke-opacity:1"
         d="M 7.1149609,7.5832416 C 11.876046,5.1898738 17.726907,7.7920741 24.760897,6.2899105 L 23.281665,17.583742 C 15.461269,15.205298 11.565018,13.959716 7.660024,15.058583 6.4043174,14.970763 5.7741946,8.8582938 7.1149609,7.5832416 Z"
         id="path19571"
         sodipodi:nodetypes="ccccc" />
      <path
         style="fill:url(#linearGradient21093);fill-opacity:1;stroke:#b7b7b7;stroke-width:0.189442;stroke-linecap:butt;stroke-linejoin:miter;stroke-dasharray:none;stroke-opacity:1"
         d="m 24.682497,30.303903 c 1.254687,-12.11161 -0.138725,-12.432087 0.597695,-23.87154 -0.02845,-0.1860899 -0.230319,-0.1703908 -0.355084,-0.1306675 -2.406522,0.7896353 -2.968171,3.202411 -3.187342,6.8503155 -0.169611,2.402209 0.643017,3.984799 1.552048,5.778637 0.265221,1.334854 -0.724804,9.615647 -1.14592,11.324033 0.775725,0.804574 1.588566,0.987247 2.538599,0.04922 z"
         id="path19311"
         sodipodi:nodetypes="cccccccc" />
      <g
         id="g21783"
         transform="translate(-1.3428427,-0.43441099)">
        <path
           d="M 12.133191,9.2364967 11.836218,8.7796519 c -0.01639,-0.013521 -0.03278,-0.027042 -0.05623,-0.029435 L 10.630829,8.6329354 c -0.02345,-0.00239 -0.0481,0.00694 -0.06689,0.01687 l -0.529117,0.3666111 c -0.02524,0.015196 -0.039366,0.037451 -0.047619,0.060306 L 9.5140615,10.752351 c -0.00826,0.02285 -0.00479,0.0469 0.00515,0.06569 l 0.3034356,0.451581 c 0.00993,0.01879 0.032784,0.02704 0.056232,0.02943 l 0.5921669,0.06044 c 0.02345,0.0024 0.04571,0.01652 0.05623,0.02943 0.0099,0.01879 0.0134,0.04283 0.0051,0.06569 l -0.168963,0.610712 c -0.01652,0.04571 -0.06114,0.0767 -0.113912,0.07131 l -0.04104,-0.0042 c -0.02405,0.0035 -0.04044,-0.01006 -0.05623,-0.02943 -0.0099,-0.01879 -0.0134,-0.04283 -0.0057,-0.05982 l 0.121102,-0.431949 c 0.0083,-0.02285 0.0048,-0.04691 -0.0051,-0.06569 -0.01579,-0.01938 -0.03278,-0.02704 -0.05623,-0.02943 l -0.7973745,-0.08138 c -0.046906,-0.0048 -0.097403,0.0256 -0.1086466,0.07777 l -0.2770163,0.972903 c -0.00826,0.02285 -0.00479,0.04691 0.00575,0.05982 l 0.3028363,0.457443 c 0.010532,0.01293 0.032784,0.02704 0.056232,0.02943 l 1.1432941,0.116683 c 0.02932,0.003 0.05396,-0.0063 0.07275,-0.01627 l 0.529715,-0.372474 c 0.01879,-0.0099 0.03877,-0.03159 0.04116,-0.05504 l 0.481398,-1.698482 c 0.0077,-0.01699 0.0042,-0.04104 -0.0057,-0.05983 l -0.303442,-0.451586 c -0.0099,-0.01879 -0.03278,-0.02704 -0.05037,-0.02884 l -0.59803,-0.06103 c -0.02345,-0.0024 -0.03984,-0.01591 -0.05563,-0.0353 -0.0099,-0.01879 -0.014,-0.03697 -0.0057,-0.05983 l 0.167167,-0.5931233 c 0.01652,-0.045707 0.06114,-0.076697 0.108648,-0.077773 l 0.04691,0.00479 c 0.01759,0.0018 0.03984,0.015914 0.04977,0.0347 0.01579,0.019385 0.01926,0.043435 0.01161,0.060426 l -0.119307,0.4143593 c -0.0077,0.01699 -0.0042,0.04104 0.01161,0.06043 0.0099,0.01879 0.03278,0.02704 0.05037,0.02884 l 0.797374,0.08138 c 0.05277,0.0054 0.0974,-0.0256 0.113912,-0.07131 l 0.269358,-0.9559122 c 0.0083,-0.022853 0.0048,-0.046904 -0.0116,-0.060425 z"
           id="path21762"
           style="font-size:5.8935px;line-height:1.25;font-family:Dalmation;-inkscape-font-specification:'Dalmation, Normal';fill:#ffffff;fill-opacity:0.504348;stroke-width:0.147338" />
        <path
           d="M 14.525913,9.4747699 14.228341,9.0237881 c -0.01639,-0.013521 -0.03278,-0.027042 -0.05624,-0.029437 L 12.63012,8.8369791 c -0.05277,-0.00539 -0.098,0.031466 -0.114511,0.077174 l -1.196734,4.2380109 c -0.0083,0.02285 -0.0042,0.04104 0.0057,0.05982 0.0099,0.01879 0.03219,0.03291 0.05563,0.0353 l 0.797374,0.08138 c 0.0475,-0.0011 0.09213,-0.03206 0.108646,-0.07777 l 0.444782,-1.57189 c 0.01712,-0.05157 0.06174,-0.08256 0.108648,-0.07777 l 0.574578,0.05864 c 0.02345,0.0024 0.0481,-0.0069 0.07275,-0.01627 l 0.529715,-0.372475 c 0.01879,-0.0099 0.03877,-0.03159 0.04116,-0.05504 l 0.479005,-1.67503 c 0.0024,-0.023452 -0.0011,-0.047503 -0.01101,-0.066289 z m -1.112315,0.5085108 -0.167167,0.5931233 c -0.01652,0.04571 -0.06114,0.0767 -0.113912,0.07131 l -0.01759,-0.0018 c -0.02405,0.0035 -0.04631,-0.01065 -0.05623,-0.02943 -0.0099,-0.01879 -0.0134,-0.04284 -0.0116,-0.06043 l 0.17303,-0.592524 c 0.01066,-0.046305 0.05528,-0.077295 0.108049,-0.07191 l 0.02345,0.00239 c 0.01819,-0.00406 0.04044,0.010048 0.05037,0.028837 0.01579,0.019385 0.0134,0.042837 0.01161,0.060425 z"
           id="path21764"
           style="font-size:5.8935px;line-height:1.25;font-family:Dalmation;-inkscape-font-specification:'Dalmation, Normal';fill:#ffffff;fill-opacity:0.504348;stroke-width:0.147338" />
        <path
           d="M 16.830087,9.7099301 16.532515,9.2589483 c -0.01639,-0.013521 -0.03278,-0.027042 -0.05623,-0.029435 l -1.54198,-0.157372 c -0.05277,-0.00539 -0.098,0.031466 -0.114511,0.077174 l -1.196735,4.2380117 c -0.0083,0.02285 -0.0042,0.04104 0.0057,0.05982 0.0099,0.01879 0.03219,0.03291 0.05563,0.0353 l 0.797374,0.08138 c 0.04751,-0.0011 0.09213,-0.03206 0.108647,-0.07777 l 0.389858,-1.381999 c 0.02537,-0.07443 0.129228,-0.105293 0.164884,-0.04834 l 0.0152,0.02524 c 0.01579,0.01938 0.0134,0.04283 0.01161,0.06042 l -0.388063,1.36441 c -0.0083,0.02285 -0.0042,0.04104 0.0057,0.05982 0.01579,0.01938 0.03219,0.03291 0.05563,0.0353 l 0.797374,0.08138 c 0.05337,-4.84e-4 0.098,-0.03146 0.108647,-0.07777 l 0.499108,-1.755917 c 0.0083,-0.02285 0.0048,-0.04691 -0.0057,-0.05982 l -0.190007,-0.285977 c -0.02513,-0.04403 -0.008,-0.0956 0.03015,-0.121329 l 0.337671,-0.232117 c 0.01938,-0.01579 0.03877,-0.03159 0.04116,-0.05504 l 0.377412,-1.3181035 c 0.0024,-0.023452 -0.0011,-0.047503 -0.01101,-0.066289 z m -1.112314,0.5085109 -0.109847,0.379781 c -0.0083,0.02285 -0.02238,0.04511 -0.04116,0.05504 l -0.02584,0.02106 c -0.06988,0.04618 -0.154234,0.002 -0.134729,-0.07299 l 0.11811,-0.402634 c 0.01066,-0.04631 0.05528,-0.0773 0.10805,-0.07191 l 0.02345,0.0024 c 0.01819,-0.0041 0.04044,0.01005 0.05037,0.02884 0.01579,0.01938 0.0134,0.04284 0.0116,0.06043 z"
           id="path21766"
           style="font-size:5.8935px;line-height:1.25;font-family:Dalmation;-inkscape-font-specification:'Dalmation, Normal';fill:#ffffff;fill-opacity:0.504348;stroke-width:0.147338" />
        <path
           d="M 19.222208,9.9540661 18.918773,9.5024859 c -0.01053,-0.012923 -0.03278,-0.027042 -0.05623,-0.029435 L 17.736837,9.358163 c -0.02345,-0.00239 -0.0481,0.00694 -0.06689,0.01687 l -0.534979,0.366013 c -0.01938,0.015794 -0.03351,0.038049 -0.04176,0.060904 l -0.963991,3.40869 c -0.0083,0.02285 -0.0048,0.04691 0.0057,0.05982 l 0.302837,0.457442 c 0.01053,0.01293 0.03278,0.02704 0.05624,0.02943 l 1.125705,0.114887 c 0.02345,0.0024 0.0481,-0.0069 0.06689,-0.01687 l 0.535578,-0.371875 c 0.01879,-0.0099 0.03291,-0.03219 0.04116,-0.05504 l 0.963993,-3.408691 c 0.0083,-0.022853 0.0048,-0.046904 -0.0051,-0.065691 z m -1.118177,0.5079129 -0.658018,2.326185 c -0.01652,0.04571 -0.06114,0.0767 -0.108648,0.07777 l -0.02345,-0.0024 c -0.02345,-0.0024 -0.03984,-0.01592 -0.05563,-0.0353 -0.0099,-0.01879 -0.0134,-0.04283 -0.0057,-0.05982 l 0.658019,-2.326185 c 0.01652,-0.04571 0.06114,-0.0767 0.108048,-0.07191 l 0.02345,0.0024 c 0.02405,-0.0035 0.04044,0.01005 0.05624,0.02944 0.0099,0.01879 0.0134,0.04284 0.0057,0.05983 z"
           id="path21768"
           style="font-size:5.8935px;line-height:1.25;font-family:Dalmation;-inkscape-font-specification:'Dalmation, Normal';fill:#ffffff;fill-opacity:0.504348;stroke-width:0.147338" />
        <path
           d="M 22.861135,9.8811404 21.682662,9.7608675 c -0.02345,-0.00239 -0.0481,0.00694 -0.06689,0.01687 l -0.337669,0.2321235 c -0.01938,0.01579 -0.04403,0.02513 -0.06749,0.02273 -0.01759,-0.0018 -0.03984,-0.01591 -0.05564,-0.035299 L 20.964969,9.7113173 c -0.01053,-0.012923 -0.03278,-0.027042 -0.05624,-0.029436 l -1.172611,-0.119675 c -0.05277,-0.00539 -0.098,0.031467 -0.114511,0.077174 l -1.196734,4.2380107 c -0.0083,0.02285 -0.0042,0.04104 0.0057,0.05982 0.0099,0.01878 0.03218,0.03291 0.05563,0.0353 l 0.797374,0.08138 c 0.0475,-0.0011 0.09213,-0.03206 0.108647,-0.07777 l 0.878914,-3.097473 c 0.01951,-0.07502 0.122766,-0.100029 0.164285,-0.04247 l 0.01579,0.01938 c 0.0099,0.01879 0.0134,0.04284 0.0051,0.06569 l -0.870657,3.07462 c -0.0083,0.02285 -0.0042,0.04104 0.0057,0.05982 0.01579,0.01938 0.03219,0.03291 0.05563,0.0353 l 0.797374,0.08138 c 0.05336,-4.84e-4 0.098,-0.03146 0.108646,-0.07777 l 0.876521,-3.074021 c 0.0024,-0.02345 0.01652,-0.04571 0.04176,-0.0609 l 0.02524,-0.0152 c 0.06988,-0.04618 0.154234,-0.002 0.128866,0.07239 l -0.878914,3.097473 c -0.0024,0.02345 0.0017,0.04164 0.01161,0.06042 0.0099,0.01878 0.03218,0.03291 0.05564,0.0353 l 0.797374,0.08138 c 0.04751,-0.0011 0.09213,-0.03206 0.108648,-0.07777 L 22.9225,9.9762645 c 0.0024,-0.023452 0.0048,-0.046904 -0.01101,-0.066288 -0.01053,-0.012923 -0.03278,-0.027042 -0.05037,-0.028837 z"
           id="path21770"
           style="font-size:5.8935px;line-height:1.25;font-family:Dalmation;-inkscape-font-specification:'Dalmation, Normal';fill:#ffffff;fill-opacity:0.504348;stroke-width:0.147338" />
      </g>
    </g>
    <path
       style="fill:url(#linearGradient21479);fill-opacity:1;stroke:none;stroke-width:0.463343px;stroke-linecap:butt;stroke-linejoin:miter;stroke-opacity:1"
       d="m 22.496719,-16.693703 c 4.761086,-2.393368 10.611946,0.208832 17.645937,-1.293332 l -1.479232,11.2938326 c -7.820396,-2.3784444 -11.716647,-3.6240266 -15.621642,-2.5251584 -1.255707,-0.08782 -1.885829,-6.2002902 -0.545063,-7.4753422 z"
       id="path21477"
       sodipodi:nodetypes="ccccc" />
    <path
       style="fill:#dfdfdf;fill-opacity:1;stroke:none;stroke-width:0.264583px;stroke-linecap:butt;stroke-linejoin:miter;stroke-opacity:1"
       d="M -17.047254,18.873747 V 2.6143898 c -1.217178,0.323274 -2.166042,3.743644 -1.826491,5.515288 0.193403,1.069612 0.254539,1.490512 0.680457,2.2920682 v 8.452001 z"
       id="path19362"
       sodipodi:nodetypes="cccccc" />
    <g
       id="g20322"
       transform="matrix(1.3000438,0,0,1.3000438,-15.65252,-45.308101)">
      <path
         id="path20318"
         style="font-variation-settings:'wght' 300;fill:#efd78d;fill-opacity:1;stroke-width:1.35946;stroke-linecap:square;stroke-linejoin:bevel;stroke-miterlimit:2;paint-order:stroke fill markers"
         d="m 12.586312,7.6987548 a 5.1443014,3.9758697 0 0 0 -5.1443891,3.9754682 5.1443014,3.9758697 0 0 0 0.9880534,2.340425 v 9.688814 c 0,0.448944 0.3613428,0.810287 0.8102864,0.810287 H 22.509737 c 0.448943,0 0.810286,-0.361343 0.810286,-0.810287 V 14.016715 A 5.1443014,3.9758697 0 0 0 24.308077,11.674223 5.1443014,3.9758697 0 0 0 19.163688,7.6987548 5.1443014,3.9758697 0 0 0 15.87655,8.6185952 5.1443014,3.9758697 0 0 0 12.586312,7.6987548 Z" />
      <path
         id="path20320"
         style="font-variation-settings:'wght' 300;fill:#efe1b3;fill-opacity:1;stroke-width:1.25292;stroke-linecap:square;stroke-linejoin:bevel;stroke-miterlimit:2;paint-order:stroke fill markers"
         d="m 12.884442,8.252964 c -3.0898899,-4.19e-5 -4.6777731,1.6624652 -4.6780342,3.713411 6.117e-4,0.785829 0.3151918,1.196715 0.8984833,1.831612 v 9.404679 c 0,0.41935 0.328586,0.756874 0.7368314,0.756874 H 21.908277 c 0.408246,0 0.736831,-0.337524 0.736831,-0.756874 v -9.402748 c 0.583781,-0.63543 0.898387,-1.047054 0.898484,-1.833543 C 23.543331,9.9154293 21.854151,8.2529236 18.865558,8.252964 17.773385,8.2535627 16.715901,8.700782 15.876409,9.2554242 15.036173,8.7002906 13.977583,8.2530402 12.884442,8.252964 Z"
         sodipodi:nodetypes="cccssssccccc" />
    </g>
    <g
       id="g20328"
       transform="matrix(1.2403409,-0.87763499,0.87763499,1.2403409,-12.144402,-29.31037)">
      <path
         style="fill:#c28942;fill-opacity:1;stroke:none;stroke-width:0.264583px;stroke-linecap:butt;stroke-linejoin:miter;stroke-opacity:1"
         d="M 5.6472544,3.8998977 C 10.258951,3.1844625 12.849616,5.3974613 14.156122,9.4711799 L 8.9393756,14.789222 C 8.4349958,9.7381538 6.5224353,7.0442577 2.9122613,7.1920189 2.0306714,6.8298144 2.9097972,5.0466172 5.6472544,3.8998977 Z"
         id="path20324"
         sodipodi:nodetypes="ccccc" />
      <path
         style="fill:#5f5f5f;fill-opacity:1;stroke:none;stroke-width:0.334734px;stroke-linecap:butt;stroke-linejoin:miter;stroke-opacity:1"
         d="M 2.5566826,21.253845 C 7.8677151,16.766227 9.5726431,14.54252 14.313435,9.7353796 c 0.06196,-0.087845 -0.02733,-0.1612988 -0.0944,-0.1943425 -1.302959,-0.6277229 -2.489254,0.1428692 -4.023566,1.5573349 -1.0207762,0.921442 -1.9880138,2.560057 -2.3240552,3.658142 -0.419288,0.654331 -5.4903518,4.935758 -6.3399629,5.472104 7.247e-4,0.638199 0.2629195,1.035159 1.0252287,1.025227 z"
         id="path20326"
         sodipodi:nodetypes="ccccccc" />
    </g>
    <g
       id="g21752"
       transform="translate(40.998903,-36.191914)">
      <g
         id="g21742"
         transform="matrix(1.4747715,-0.26481673,0.26481673,1.4747715,-10.172851,-3.7523165)">
        <path
           id="path21738"
           style="font-variation-settings:'wght' 300;fill:url(#linearGradient21754);fill-opacity:1;stroke-width:1.35946;stroke-linecap:square;stroke-linejoin:bevel;stroke-miterlimit:2;paint-order:stroke fill markers"
           d="m 12.586312,7.6987548 a 5.1443014,3.9758697 0 0 0 -5.1443891,3.9754682 5.1443014,3.9758697 0 0 0 0.9880534,2.340425 v 9.688814 c 0,0.448944 0.3613428,0.810287 0.8102864,0.810287 H 22.509737 c 0.448943,0 0.810286,-0.361343 0.810286,-0.810287 V 14.016715 A 5.1443014,3.9758697 0 0 0 24.308077,11.674223 5.1443014,3.9758697 0 0 0 19.163688,7.6987548 5.1443014,3.9758697 0 0 0 15.87655,8.6185952 5.1443014,3.9758697 0 0 0 12.586312,7.6987548 Z" />
        <path
           id="path21740"
           style="font-variation-settings:'wght' 300;fill:url(#linearGradient21756);fill-opacity:1;stroke-width:1.28835;stroke-linecap:square;stroke-linejoin:bevel;stroke-miterlimit:2;paint-order:stroke fill markers"
           d="m 12.763267,8.125971 c -3.215089,-4.26e-5 -4.8673117,1.6893484 -4.8675834,3.773459 6.365e-4,0.798537 0.3279631,1.216067 0.934889,1.861231 v 9.556759 c 0,0.426131 0.3419,0.769113 0.7666871,0.769113 H 22.15274 c 0.424787,0 0.766686,-0.342982 0.766686,-0.769113 v -9.554797 c 0.607436,-0.645706 0.934789,-1.063985 0.93489,-1.863193 C 23.854045,9.8153195 22.096421,8.12593 18.986733,8.125971 17.850306,8.1265794 16.749974,8.5810305 15.876466,9.1446417 15.002185,8.5805312 13.900701,8.1260484 12.763267,8.125971 Z"
           sodipodi:nodetypes="cccssssccccc" />
      </g>
      <path
         style="fill:url(#linearGradient21758);fill-opacity:1;stroke:none;stroke-width:0.463343px;stroke-linecap:butt;stroke-linejoin:miter;stroke-opacity:1"
         d="M 8.4578036,8.0176526 C 13.218889,5.6242848 19.06975,8.2264851 26.10374,6.7243215 L 24.624508,18.018153 C 16.804112,15.639709 12.907861,14.394127 9.0028667,15.492994 7.7471601,15.405174 7.1170373,9.2927048 8.4578036,8.0176526 Z"
         id="path21744"
         sodipodi:nodetypes="ccccc" />
      <path
         style="fill:url(#linearGradient21760);fill-opacity:1;stroke:#929292;stroke-width:0.110067;stroke-linecap:butt;stroke-linejoin:miter;stroke-dasharray:none;stroke-opacity:1"
         d="m 26.02534,30.738314 c 1.254687,-12.11161 -0.138725,-12.432087 0.597695,-23.87154 -0.02845,-0.1860899 -0.230319,-0.1703908 -0.355084,-0.1306675 -2.406522,0.7896353 -2.968171,3.202411 -3.187342,6.8503155 -0.169611,2.402209 0.643017,3.984799 1.552048,5.778637 0.265221,1.334854 -0.724804,9.615647 -1.14592,11.324033 0.775725,0.804574 1.588566,0.987247 2.538599,0.04922 z"
         id="path21746"
         sodipodi:nodetypes="cccccccc" />
      <text
         xml:space="preserve"
         style="font-style:normal;font-variant:normal;font-weight:normal;font-stretch:normal;font-size:5.8935px;line-height:1.25;font-family:Dalmation;-inkscape-font-specification:'Dalmation, Normal';font-variant-ligatures:normal;font-variant-caps:normal;font-variant-numeric:normal;font-variant-east-asian:normal;fill:#ffffff;fill-opacity:0.504348;stroke:none;stroke-width:0.147338"
         x="10.44461"
         y="11.976238"
         id="text21750"
         transform="rotate(5.827337)"><tspan
           sodipodi:role="line"
           id="tspan21748"
           style="font-style:normal;font-variant:normal;font-weight:normal;font-stretch:normal;font-size:5.8935px;font-family:Dalmation;-inkscape-font-specification:'Dalmation, Normal';font-variant-ligatures:normal;font-variant-caps:normal;font-variant-numeric:normal;font-variant-east-asian:normal;fill:#ffffff;fill-opacity:0.504348;stroke-width:0.147338"
           x="10.44461"
           y="11.976238">sprom</tspan></text>
    </g>
  </g>
</svg>
